<?xml version="1.0" encoding="utf-8"?>
<!-- Generator: Adobe Illustrator 28.0.0, SVG Export Plug-In . SVG Version: 6.00 Build 0)  -->
<svg version="1.1" id="图层_1" xmlns="http://www.w3.org/2000/svg" xmlns:xlink="http://www.w3.org/1999/xlink" x="0px" y="0px"
	 viewBox="0 0 344.7 78.3" style="enable-background:new 0 0 344.7 78.3;" xml:space="preserve">
<style type="text/css">
	.st0{fill:#005BAC;}
</style>
<path class="st0" d="M49.2,55.4c0-0.6,0.3-0.9,1.1-1.1C50.4,55.1,50.1,55.1,49.2,55.4z M41.8,52.3c0.3,0.9,0.3,1.1,0.6,1.7
	c0.6,0.9-0.6,0.6-1.1,0.6c-0.9,0-1.1-0.3-0.9-1.1C40.7,52.8,41.2,52.6,41.8,52.3z M46.4,55.1c-2,0-0.3-2.6,0.3-4.9
	c0-0.6,0.3-0.9,0.3-1.4c0.9,0,1.7,0.9,2,1.1c0.3,0.3,0.3,0.9,0.3,1.4c0.3,1.4,1.4,1.7-0.3,2.9C48.1,54.8,47.2,55.1,46.4,55.1
	L46.4,55.1z M52.7,54.8c-1.1,0-1.7-1.1-1.1-1.7c0.3-0.3,1.7-1.4,2.3-1.4C53.8,52.3,53.2,54.8,52.7,54.8z M42.7,51.1
	c0.6,0,0.9,0.3,1.4,0.6c0.3,0,1.1,0.6,1.1,0.9c0,1.1-0.3,1.4-0.6,2.3c-0.9,0-0.9-0.6-1.1-1.4C42.9,52.6,42.7,52,42.7,51.1z
	 M54.1,54.3c0-1.7,0.3-2.6,0.9-4.6c0.3-1.7,0.6-2.3,2.6-2.3c0.6,0,2,2,0.6,4.3C57.8,52.6,55.5,54.3,54.1,54.3z M34.9,49.7
	c0.9,0,1.4,0,2.3,0.3c0,0.6-0.3,1.4-0.6,2C35.2,51.1,35.5,50.8,34.9,49.7L34.9,49.7z M45.2,48c0.3,0,0.6,0.3,0.9,0.6
	c0,0.9-0.3,1.4-0.3,2h-0.3C45.2,49.7,45.2,49.1,45.2,48L45.2,48z M38.4,48.6c1.1,0,2.6-0.6,2.6,2.3c0,0.6-1.7,2.6-2.3,2.6
	c-0.3,0-0.3-0.3-0.6-0.6c-0.3,0-0.6-0.3-0.9-0.3c0-0.3,0.6-2,0.9-2.3C38.9,50,39.5,50.6,38.4,48.6L38.4,48.6z M53.5,50.3
	c-0.3-0.6-0.6-0.6-0.6-1.7c0-0.9,2-2,1.4,0.9C54.4,50,54.1,50.3,53.5,50.3L53.5,50.3z M60.9,42.6c0.9,1.1,1.1,5.4,0.3,7.4
	c-0.3,0.6-1.1,2-1.7,2C61.8,47.4,60.9,47.7,60.9,42.6L60.9,42.6z M46.4,46.8c-1.4,0-3.1-2.3-3.1-4c0-2.6,0-1.4,0.6-2.9
	c0.6,0,0.6,0,0.9,0.6c1.7,1.4,1.4,0.9,2.9,1.1C47.5,43.1,46.7,46,46.4,46.8z M55.2,46.6c-0.9,0-2.9,0.3-2.9-2c0-1.4,0.9-3.1,1.1-4.3
	c1.1,0.3,1.4,1.1,2.9,1.4c0,1.1-0.3,1.7-0.3,2.6c0,0.6,0,0.9-0.3,1.1C55.5,46,55.2,46,55.2,46.6L55.2,46.6z M38.1,47.1
	c-1.4-0.3-2.6-2-2.6-4c0-2.9,0.3-2.9,1.1-3.4c0.6,0.9,0.6,1.1,1.1,1.4c0.6,0.6,0.9,0.6,2,0.6L38.1,47.1L38.1,47.1z M39.5,41.1
	c-1.1,0-3.1-2.6-1.1-4c1.1-0.9,1.7-0.9,2.9-0.9c0,1.1-0.9,2.9-1.1,3.7C40.1,40.6,40.1,41.1,39.5,41.1z M60.4,38.6
	c-0.3-1.4,0.9-2.6,1.7-2.9c0.6,0.9-0.3,1.1-0.9,1.7C60.7,37.7,60.9,38,60.4,38.6L60.4,38.6z M57.5,36.3l-0.9,3.4
	c0,0.6-0.3,1.1-0.9,1.1c-0.9,0-2.3-2-0.3-4C55.8,36.3,58.4,34.3,57.5,36.3L57.5,36.3z M47.5,40.8c-0.9,0-1.1-0.3-1.7-0.9
	c-0.9-1.7-1.1-2.9,0.6-4c0,0,2.9-1.7,2.9-0.3l-0.3,0.9l-0.9,3.1C48.1,40.3,48.1,40.8,47.5,40.8L47.5,40.8z M54.9,26
	c0.9,0,1.7,0.9,2.3,1.4l0.9,0.9c0.9,1.1,2,2.3,2.6,3.4c0.6,0.9,0.9,1.7,1.1,2.9c-2.3,1.1-2.6,2.9-2.9,5.4c-0.3,2.3,0,5.7,0,8
	l-0.3-0.3c0,0,0-0.3-0.3-0.3c-0.3-0.3-0.3-0.3-0.3-0.9h-2.3c0-1.1,0.3-2.3,0.6-3.4c0.6-2.3,1.1-1.4,1.1-2.3c0-0.9-0.9,0.3,0.6-3.4
	c0-0.3,0.3-0.9,0.6-1.1c0.6-0.9,0.6-0.3,0.9-0.9c0-0.6,0-0.3-0.6-0.6c-0.9-0.3-1.7,0-2.6,0.3c-0.3-0.6-0.9-1.4-1.4-1.7
	c-0.6-0.3-2-0.6-2,0.6c0,0.9,2,0.6,2.9,1.7c-0.6,0.3-1.7,1.1-2.3,1.4c-1.1,0.9-3.7,6.3-3.7,7.7c0,6,2,4.3,2,6.6
	c0,0.6-0.9,1.4-1.4,1.4c0-0.6-0.6-2.9-0.9-3.1c-0.3-0.3-0.9-0.6-1.1-0.9c-0.3-0.3-0.9-0.6-1.4-0.9c0-2,0.6-3.1,0.9-4.9
	c0.3-0.9-0.3-0.9,0.6-1.1c0-2,0-1.7,0.6-3.7c0.3-0.6,0.3-1.1,0.6-1.7c0.6-0.9,0.9-0.3,1.4-1.1c-0.3-1.4-4.3-0.3-4.6-0.3
	c-0.9,0-0.9-0.3-1.4-0.9c-0.6-0.9-2-1.4-2,0c0,0.9,2,0.6,2,1.4c0,0.9-2,2.6-2.3,3.7c-0.3,0.9-0.6,1.4-0.9,2
	c-1.7,3.7,1.7,5.4,1.7,8.3c0,0.6-0.9,0.6-1.4,0.6c-1.1,0-0.3-2.6-1.7-2.6h-1.4c0-0.9,0.6-2.9,0.9-3.7c0-0.3,0.3-0.6,0.3-0.9
	c0.6-1.7,0-0.9,0.9-1.4c0.3-0.3,0.3,0,0.3-0.9c-0.3,0-0.6,0,0-1.1l0.9-2.6c0.3-0.9,0.9,0,0.9-0.9c0-1.1-2-0.6-3.1-0.6
	c-0.9,0-0.9,0-1.1-0.9c-0.3-0.6,0-0.3-0.3-0.6c-0.3-0.6-0.9-0.3-1.1-0.3c0,2,1.1,0.9,1.1,2c0,0.6-2,2.3-2.3,2.6
	c-1.7,1.1-1.7,1.1-2.3,3.1c-0.3,1.7-0.3,2.9,0.3,4.3c0.6,1.7,2,1.7,2.6,2.6h-1.7c-0.6,0.6-0.9,1.1-2-0.6c-2-2.6,0.3-4.6,0.3-6.9
	c0-5.4-1.4-7.1,1.4-7.1c0.9,0,2,1.4,2,0.3c0-1.4-1.4-1.7-2.6-2.3c0.3-0.9,1.4-0.6,1.4-2c0-1.1-1.1-1.7-2-1.7c-0.9,0,1.1,1.7-0.3,2.9
	c-0.6,0.3-0.9,0.6-1.1,0.9c-2.6,2.3-1.4,3.1-1.4,6.3v3.4c0,4.6-2,4.9,1.4,9.7c0.9,1.1,2.3,2.6,3.1,3.7c0,0.6-0.3,0.6-0.3,1.4
	c0.9,0.3,0.9,0,1.1-0.9c1.4,0.9,3.1,2,4.9,2.3c0.6,0,2,0.3,2.3,0.3c0,0.9-0.3,0.9-0.3,1.4l0.6,0.3c0.3-0.3,0.6-0.9,0.6-1.4h7.7
	l-0.3,1.1c0.9,0,1.1-0.3,1.1-1.4c1.4,0,2.9-0.9,3.7-1.4c0.6-0.3,1.1-0.6,1.7-1.1c1.4-1.1,2.9-2.6,4-4c1.1-2,1.7-4,0.9-6
	c-0.3-0.6-0.3-1.4-0.6-2c-0.3-1.4-0.9-3.1-0.9-4.6c0-0.6,0.3-0.6,0.3-1.1c1.1,0,1.1,1.1,1.1,2.3v2.6c1.4-0.3,1.1-3.4,1.1-4.6
	c0.3-2,0.9-2.9-0.9-5.4c-1.1-1.7-3.1-3.7-4.9-5.1c-0.9-0.6-2-1.4-3.4-1.4L54.9,26L54.9,26z M67.2,23.1c0.3-0.3,0.6-0.6,1.1-0.9
	c-0.3,0.3-0.3,0.3-0.9,0.6l0.3,0.3v0.3c0.3,0,0.6,0.3,1.1,0.3L67.8,24C67.8,23.4,67.5,23.4,67.2,23.1z M68.9,23.7
	c0.6-0.3,0.6-0.3,0.9,0.3L68.9,23.7z M68.4,22.8C68.7,22.8,69.2,22.8,68.4,22.8C68.7,22.8,68.7,22.8,68.4,22.8
	C68.7,22.8,68.1,23.1,68.4,22.8z M67.2,22.6c-0.3-0.3-0.3,0-0.3-0.6c-0.6,0-1.4,0.3-1.7,1.1c0.3,0.3,0.6,0,1.1-0.3
	c0.6,0.9,1.7,1.7,2,2c0.3,0.9,0,0,0,0.6c0,0.3,0.3,0.6,1.1,0.6c0-1.1-0.9-0.9-1.1-1.7c0.9,0,0,0.3,0.9,0.3h1.1
	c0.3-0.3,0-0.3,0.3-0.9c1.1,0.9,3.1,5.7,3.7,7.1c3.1,9.1,1.7,18-3.4,25.7c-3.1,4.6-8.3,8.9-13.7,10.6c-16.9,6-34-4-38-20.3
	c-1.7-7.1-0.3-14.6,2.6-20c0.3-0.9,0.9-1.4,1.1-2c3.4-5.4,7.1-8.6,12.9-11.1c0.9-0.3,1.4-0.6,2-0.9c2.3-0.9,6.3-1.7,9.4-1.7
	c6.3,0,12.3,2.3,16.6,5.4l2.6,2c1.1,1.1,1.7,1.4,2.6,2.9c0.6,0.6,1.4,1.4,1.4,2c-0.6-0.3-1.1-0.6-1.1-1.4h-0.6
	c0.3-0.3,0.3-0.3,0.3-0.6C68.1,21.7,67.8,22,67.2,22.6L67.2,22.6z M17.2,40.3c0,16.6,13.4,30.3,30,30.3c20.3,0,35.1-20,28.3-39.7
	c-2-6-6-11.4-11.1-15.1c-0.3-0.3-0.6-0.6-1.1-0.9l-3.7-2c-3.4-1.7-8.3-2.9-12.3-2.9C30.7,10,17.2,23.7,17.2,40.3z M26.4,40
	c0-3.1,0.9-6.6,2-8.6c0.6-1.1,1.1-2.3,2-3.4c1.1-1.7,2-2.3,3.4-3.7c5.4-4.9,14.9-6.3,21.7-2.9c1.7,0.9,3.4,1.7,4.9,2.9l2.9,2.6
	c1.1,1.4,2.3,3.1,2.9,4.9c2,4,2.3,8.9,1.4,13.4c-0.3,1.1-0.9,2.9-1.4,4c-3.4,7.4-10.3,12.3-18.9,12.3c-5.7,0-10-2-14-5.4
	c-0.3-0.3-0.6-0.3-0.9-0.6l-2.3-2.9C27.8,48.8,26.4,44.6,26.4,40L26.4,40z M38.9,20c-2.9,1.4-2.3,0.9-5.1,3.1
	c-4.9,3.4-8.3,10.3-8.3,16.3c0,5.4,1.1,9.4,4,13.4c1.7,2.3,4.6,4.9,6.9,6.3c6,3.4,13.1,3.7,19.7,0.9c7.1-3.4,12.9-10.9,12.9-18.9
	c0-4-0.3-6.9-2-10.3c-1.4-2.6-2.3-4-4.3-6c-2-2-3.4-2.9-6.3-4.3c-3.7-1.7-9.1-2.6-13.4-1.4c-0.6,0-1.1,0.3-1.7,0.6
	c-0.9-0.3-1.4,0-2,0l-0.3-2.3c0-0.3-0.3-0.6-0.6-0.9c-0.3-1.1,0.9-1.1-0.3-2c0,2-0.3,0.6,0.3,2.6C38.7,18.6,38.4,18.8,38.9,20z
	 M24.9,23.7c0,0.9,2.3,3.7,3.7,3.7c-0.3-0.6-2-2-2.9-3.4l0.6-0.9c0.9-1.1,0.9-1.4,2.3-0.3c0.3,0.6,0.6,0.9,1.1,1.1l-0.3,1.1
	c0.3,0,0.6,0,0.9,0.3c0-2.6-2.6-4.3-3.1-4c-0.9,0-0.6,0.3-0.9,0.9C26.4,22.8,25.2,23.4,24.9,23.7L24.9,23.7z M44.7,23.7
	c-0.3,0-0.3,0-0.9-0.3v-0.9c0.9-0.3,0.9-0.3,1.4,0.3C45.2,23.1,44.9,23.7,44.7,23.7z M44.4,24.3c0.6,0,0.6-0.3,1.1-0.3
	c0,0.3,0,0.3-0.3,0.9c-1.7,0.3,0-0.6-2,0c0.3,1.4,3.1,0.6,3.1-0.9c0-0.6,0-1.1-0.3-1.7c-0.3-0.3-0.9-0.6-1.1-0.6
	C42.4,21.7,42.4,24.3,44.4,24.3L44.4,24.3z M48.9,24.6c-1.1,0-0.6-2.3,0.3-2.3C50.1,22.3,49.8,24.6,48.9,24.6z M48.7,25.1
	c1.4,0,2,0,2-2.3c0-2-3.7-2-3.4,0.9C47.5,24.6,48.1,25.1,48.7,25.1z M39.2,14.3c1.1,0,0.3-0.6,1.4-0.9c0,0.3-0.3,0.9-0.3,1.4
	c-0.6,0,0-0.3-0.9-0.3c0,0.9,0.3,0.6,0.3,1.1c0,0.6-0.6,0.3-0.6,1.4c0,0.6,0,0,0.3,0.6c1.4-0.3,0.3-1.7,1.4-2.6
	c-0.3,0.6-0.6,0.3-0.3,0.9c1.1-0.6,0-1.1,0.9-1.7c0,0.6,0.3,1.1,0.9,1.1v-0.6c-1.1,0-0.6-1.1-0.6-1.4c-0.6,0.3,0,0.6-0.9,0.9
	c0-0.6,0.3-0.9,0.6-1.4c-0.9-0.3-0.6,0.6-0.9-0.6C39.8,12.3,39.2,13.4,39.2,14.3L39.2,14.3z M43.8,14.8c0.6,0,0.6-0.3,0.9-0.6
	c-0.6-0.3-0.3,0-1.7,0v-0.9c-0.3,0-0.3,0-0.6,0.3C41.5,14.8,42.9,14.8,43.8,14.8L43.8,14.8z M62.7,57.4
	C62.9,57.4,62.9,57.4,62.7,57.4C62.9,57.4,62.9,57.4,62.7,57.4c1.4-1.4,2.6,0.3,1.1,1.1L62.7,57.4z M61.8,58.3
	c0.9-0.3,0-0.9,1.4,0.9c1.7,1.7,1.4,1.4,1.4,2.3l1.4-1.1c0,0-0.3,0.3-0.9-0.3c-1.1-1.1-0.6-1.1,0.3-0.9c0.6,0,1.1,0.3,1.4,0.3
	l0.9-0.9c-2,0.3-1.1,0-2.6,0c0-0.6,0.6-2-1.1-2C63.2,56.3,61.8,57.7,61.8,58.3L61.8,58.3z M22.1,48c-1.4,0-2-2.9,1.4-2.9
	C25.2,45.1,25.2,48,22.1,48L22.1,48z M22.4,48.6c2.3,0,3.1-2.3,2-3.4c-2-2-5.1,0.9-3.4,2.9C21.2,48.3,22.1,48.6,22.4,48.6L22.4,48.6
	z M24.7,53.4l1.1-2.3c0.3-0.9,0.6-1.1,0.3-1.7c-0.3-0.6,0-0.3-0.6-0.3c0.6,1.1-0.6,1.4-1.4,1.7c-2,0.9-1.4,0.9-2,0.3
	c0.3,0.6,0.6,0.9,0.6,1.4v-0.3c0.3-0.3,0,0,0-0.3c0-0.3,0.6-0.3,0.6-0.6l1.7-0.9c-0.3,0.6-0.6,1.1-0.9,2c-0.3,0.6-0.9,1.4-0.9,2
	c0.3,0,1.4-0.6,1.7-0.9l2.3-1.1c0.6,0.3,0,0.3,0.6,0.6c-0.3-0.6-0.6-1.1-0.9-1.4c0.3,0.9,0,0.9-0.9,1.1L24.7,53.4L24.7,53.4z
	 M45.2,64.3v2.9l-0.6,0.3c0.6,0,0.6,0.3,1.4,0.3c-0.3-0.6,0.3-0.3-0.6-0.3v-2.9c0.3,0.3,1.1,1.1,1.4,1.7c0.3,0.6,1.1,1.4,1.4,1.7
	v-3.7c0-0.6,0-0.3,0.3-0.6h0.3c-0.6,0-0.6-0.3-1.4-0.3l0.3,0.3l0.3,0.3c0.3,0.6,0,1.1,0,2.6c-0.6-0.3-1.7-2.6-2-2.9
	c-0.3-0.3-0.9-0.3-1.4-0.3l0.3,0.3C45.2,63.4,45.2,63.4,45.2,64.3L45.2,64.3z M25.8,56.6c0,1.4,1.1,2.3,2,2.6
	c0.9-0.6,0.9-1.1,1.7-0.9c-0.3-0.6-0.6-0.9-1.1-1.4c0,0.6,0.3,0.6-0.3,0.9l-0.9,0.6c-0.9-0.6-1.1-0.3-1.1-1.7c0.3-1.1,2.6-2,3.4-1.1
	c0.6,0.6,0.3,1.4,0.3,2l1.1-0.9c-1.1-0.3,0,0-1.1-1.1C28.4,53.7,25.8,54.6,25.8,56.6z M55.5,15.7c-0.6-0.3-1.7-0.9-1.7,0.3l1.1,0.3
	c-0.3,0.3-0.6,0.6-1.1,0.9c-1.4,1.1-0.3,1.1,0.9,0.6c0.6-0.3,0.6-0.6,1.1-0.9c0.9,0.6,1.4,0.6,1.4-0.3l-1.1-0.3c0-1.1,1.1-1.1,1.4-2
	C56.7,14.3,56.1,14.8,55.5,15.7L55.5,15.7z M57.8,60.6v0.3c0.9-0.3,0.6,0,2.3,2.3c0.3,0.6,0.6,0.6,0,1.1c0.6,0,2-1.1,2.9-1.7
	c0-0.6-0.3-0.6-0.3-1.1c-0.3,0.3,0,0.6-0.6,1.1c-0.3,0.3-0.9,0.6-1.1,0.6c-0.6-0.9-0.9-0.9-0.9-1.7c0.9-0.3,0.6-0.9,1.7-0.3
	c-0.3-0.9-0.3-0.6-0.6-1.4h-0.3c0,0.6,0.3,0.6-0.3,0.9c-0.3,0.3-0.6,0.3-0.9,0.6c-0.3-0.3-0.6-0.9-0.9-1.4c0.9-0.3,0.9-0.9,2-0.6
	c0-0.6-0.3-0.3-0.3-0.9C59.8,59.1,58.7,60.3,57.8,60.6L57.8,60.6z M65.8,54c0,2.3,2.6,0.6,3.1,0.6c1.1,0,0.9,2-1.1,1.4
	c0.3,0.3,0.9,0.9,1.1,0.9c0-0.9,1.1-0.9,1.1-2c0-2.3-2.9-0.6-3.7-0.6c-0.6,0-0.6-1.4,0.6-1.4c0.6,0,0.3,0,0.9,0.3
	c-0.3-0.3-0.9-0.9-1.1-0.9c0,0.3,0.3,0-0.6,0.6C65.8,53.4,65.8,53.4,65.8,54z M40.1,62.6c-0.3,0.9-0.6,1.7-0.6,2.6
	c0,1.1,0.9,1.7,2,1.7c0.9,0,1.1-0.9,1.4-1.7c0.6-2,0.3-2,1.1-2c-0.3-0.6-0.9-0.3-1.4-0.6c0.3,0.6,0,0,0.6,0.6c-0.9,1.7,0,3.1-2,3.1
	c-1.4,0-0.9-1.4-0.6-2.6c0.3-1.1,0-0.9,0.9-1.4c-0.6,0-0.9-0.3-1.7-0.3C40.1,62.6,39.8,62.3,40.1,62.6L40.1,62.6z M51.8,22.8
	c0.9,0.3,1.1,0.6,2,0.9L53.5,24c-0.9,0.3-1.7,0.9-2,2l1.1,0.3c0.3-1.7,2.3-1.7,2.9-2.6c-0.3-0.3-1.1-0.6-1.4-0.9
	c-0.6-0.3-1.1-0.6-1.7-0.6L51.8,22.8L51.8,22.8z M55.8,61.7c1.1,0,0.6,0.3,0.6,3.1c-0.9-0.6-1.1-1.4-2-2c0-0.6,0,0,0.3-0.9
	c-0.3,0-1.1,0.6-1.7,0.6l0.9,0.9c0.6,0.6,2,2.6,2.6,2.6l0.3-3.7c0-0.9,0-0.6,0.3-1.1C56.7,61.1,56.1,61.4,55.8,61.7L55.8,61.7z
	 M22.9,39.7c0.9,0,0.9,0.3,0.9,1.1l-3.4,0.3l-0.9-0.6V42c0,0.6,0.3,0.9,0.3,0c1.1,0,2.3-0.3,3.7-0.3l0.3,0.9l-0.9,0.6
	c1.1,0,1.4,0.3,0.9-3.1c0-0.9-0.3-0.6-1.1-0.6v0.3L22.9,39.7z M68.9,48c0.3,0.3,0.6,0.3,1.1,0.3c-0.6-0.6-0.6,0-0.6-1.4l3.1,0.6
	c0.6,0.3,0.6,0,0.6,0.9c0.6-0.3,0.3-0.3,0.6-1.7c-0.3,0.3-0.3,0-0.3,0.6c-0.9,0-2.6-0.9-3.7-0.9c0.3-1.7,0.9-0.6,1.1-1.4
	c-0.3,0-0.6-0.3-1.1-0.3L68.9,48L68.9,48z M70.4,40.8c0,0,0-0.3,0.6-0.6c0.3,0.3,1.1,0.9,1.4,1.1c-0.3,0.3-0.3,0.3-0.9,0.6
	c-0.3,0.3-0.6,0.3-1.1,0.3c0-0.9,0-0.3-0.3-0.6c0,0.9,0,1.1-0.3,1.7c0.6-0.3,0.3-0.3,0.9-0.6c2.3-1.4,1.4-0.9,3.1-0.9l0.3,0.6
	c0.3-0.6,0.3-1.1,0.3-2c0,0.6-0.6,0.6-1.4,0.6c-0.3,0-1.7-0.9-2.3-1.7c-0.3-0.3,0-0.6-0.3-0.3C70.1,39.7,70.4,40.6,70.4,40.8
	L70.4,40.8z M66.1,24c0,0.9,0,0,0.9,1.1c-0.9,0.3,0,0-1.7-0.9c0,0.9,0.6,0.9,1.1,1.4c-0.6,0.3-1.1,0.6-1.4-0.3h-0.3
	c-0.3,0.6-0.6,0.9,0.3,1.1s0.9,0,1.7-0.3c0.6,0.3,0.3,0.3,0.9,0.6c0-0.9,0-0.3-0.3-0.6v-0.6c0.6,0,0.9,0.3,0.9-0.3
	c0.3-0.3,0-0.3-0.3-0.6C67.2,24.6,66.4,23.4,66.1,24z M39.2,24.3c0,0.3,0,0.3,0.3,0.9c0.6-0.6,0.3-0.6,0.9-0.9
	c0.3,0.9,0.6,1.4,0.9,2.3c0.3,0,0.6-0.3,1.1-0.6c-0.3-0.6-1.4-2.9-1.4-3.1C39.2,23.1,40.7,23.4,39.2,24.3L39.2,24.3z M32.7,58.6
	c-0.6,0.3-0.9,0.9-1.1,1.4c-0.6,0.9-0.9,1.1-1.4,1.4c0-0.6,0-0.6-0.3-0.9c-0.6,0-0.3,0-0.6,0.6c0.3,1.1,1.4,1.1,2.3-0.3l1.4-1.7h0.6
	c-0.3-0.3-1.1-0.9-1.4-1.1C32.4,58.3,32.4,58,32.7,58.6L32.7,58.6z M50.1,62.8v0.3c0.9,0,0.6,0,0.9,1.4c0,0.6,0.3,1.4,0.3,2
	c-0.3,0.6-0.3,0-0.6,0.6c0.3-0.3,0.6,0,0.9-0.3c0.9,0,0.6,0,0.9-0.3c-0.6,0-0.6,0-0.9-1.4c0-0.6-0.3-1.4-0.3-2
	c0.3-0.6,0.3,0,0.6-0.6C51.5,62.8,50.4,62.8,50.1,62.8L50.1,62.8z M68.4,49.4C68.4,49.1,68.4,49.1,68.4,49.4z M68.4,49.4
	c0,0.6-0.6,1.1-0.9,1.7c0.6-0.3,0,0,0.6-0.6l1.7,0.9c1.4,0.6,1.4,0.6,1.4,1.4c0.3-0.3,0.9-1.1,0.9-1.7c-0.6,0.6-0.6,0.3-2.3-0.6
	c-0.3-0.3-0.6-0.3-0.9-0.3L68.4,49.4z M42.1,16.6c-0.6-0.9-0.3,0-1.1,0.3c0-0.6,0-0.3-0.6-0.6v1.4c0.6,0.6,0.6,0.6,0.9,0.6
	c0-0.9,0-0.6-0.3-1.4h0.6c0,0.6-0.3,0.3,0.3,0.6c0.6-0.9,0-0.9,0.9-1.4c0.6,0.9,0.3,1.7,0.3,2.3h0.3c0-0.3,0.6-2.9-0.6-2.9
	C42.1,15.4,42.1,16,42.1,16.6L42.1,16.6z M33.2,63.1c-0.9,0-0.6-0.3-0.9,0.3c0.6,0,1.1,0.6,1.7,0.9c-0.3-0.9-0.6-0.3,0.6-2
	c1.1-1.7,0.6-1.7,1.4-1.4c-0.3-0.6-0.9-0.9-1.4-0.9C35.2,60.8,33.5,61.7,33.2,63.1L33.2,63.1z M27.2,25.1c0,0.6,0.6,0.6,0.9,0.9
	c0.6-0.9,0-0.3,0.6-1.1c0.3-0.3,0.3,0.3,0.3-0.6c0-0.3-0.3-0.3-0.9,0C27.8,24.3,27.2,24.6,27.2,25.1z M55.5,18.3
	c0,0.6,0,0.6,0.6,1.1c0.3,0,0.6-0.3,0.6-0.6c0-0.3,0-1.1-0.9-1.1C55.5,18,55.5,18,55.5,18.3L55.5,18.3z M26.7,24.3
	c0.6-0.3,1.1-0.3,0.6-0.9C26.7,23.4,26.7,23.7,26.7,24.3z M38.7,14.6c0-0.6-0.3-0.6-0.9-0.9C38.1,14.6,38.1,14.6,38.7,14.6z"/>
<path class="st0" d="M129.8,18.9c-1.4,0-4.3,2.6-5.1,2.6s-12.3-0.9-13.4-0.9c-1.1,0-0.9-1.7-2.9-1.1c-4.6,1.1-4.6,12-4.6,12
	s-0.6,19.4-0.3,25.4s2.9,6.3,3.1,6.3c0.3,0,0.9-0.6,0.9-2.3c0-1.7,1.4-27.1,1.7-30.6c0.3-3.4,4.3-4,8-4c3.7,0.3,4.3-2.3,9.4-1.1
	c5.4,1.1,4.9,8,4.9,8s0.3,14.6,0,17.1c-0.3,2.9-2.6,3.1-4.3,2.9c-1.7-0.3-1.4,0.6-1.4,0.6s-0.3,8.3,2.9,8c4.9-0.6,8.3-19.7,8.3-19.7
	s0.6-7.4-0.9-14.6C134.7,20.3,131.2,18.9,129.8,18.9"/>
<path class="st0" d="M122.1,34c0.3-2.3-2.3-2.9-4.3-2.9c-2.9,0-3.4,1.1-3.7,2.3c-0.3,1.1,2.3,2.9,4.3,2.9
	C120.4,36,121.8,36.3,122.1,34 M125.8,44.6c-1.4,0-3.4-2-4.3-2.9s-2.6-1.1-3.7-1.1c-1.4,0.3-4.3,0-4.9,0.3c0,0-1.4,0.9-1.4,4.3
	c0,3.4,3.4,5.4,4.3,5.7c0.9,0.3,2-0.9,2-1.7s0-2.3,1.1-2c1.1,0.6-0.6,2.9,2.9,2.9C125.5,49.7,126.9,44.6,125.8,44.6 M171.5,23.7
	c0,0,1.1,2,1.1-2.3s-2.6-4.9-3.1-5.1c-1.1-0.3-2,1.1-2.3,3.4C167.2,22.3,171.5,23.7,171.5,23.7 M166.9,23.7
	c-1.1,2.3-0.6,2.6-0.9,4.3c-0.6,1.4-1.4,2.9-2,3.7c-0.9,0.6,0.9,1.1,0.9,1.1s1.7,0.3,4.3-3.7S167.5,22.9,166.9,23.7 M163.8,33.2
	c-1.7,0.3-1.1,8-2,12c-0.9,4-3.1,8.9-4,12c-0.9,3.1-0.6,8.6,2.9,8.6c3.1,0,2.9-10.9,2.9-12.9c0-2,1.7-5.4,2.6-6.9
	c0.9-1.1-0.6-6-0.6-7.7C165.2,36.6,164.9,33.2,163.8,33.2 M184.7,34.3c0,0,2.6-2.6,2.6-1.1c0,1.4-2.3,3.4-3.4,4.6
	c-1.1,1.1-1.4,2.9,2,2.6c3.4-0.6,4.6-8.9,5.1-10c0.6-0.9,2.9-1.1,2.9-1.1s0.3,4.3,0,6.9c-0.3,2.6,2.3,5.1,2.3,5.1s1.1,0.3,2,0
	c1.1,0,1.4-2.6,1.4-4c-0.3-1.4-1.7-1.1-2.6-2s-0.3-3.1-0.3-4.9c0-1.7,3.1-2.6,4.3-3.4c1.1-0.9,0-2-0.3-2s-7.7,3.1-9.1,3.7
	c-1.4,0.6-1.4-0.6-1.4-1.7c0-0.9,7.1-6,7.1-7.1c0-0.9-4.3-1.4-4.9-2c-0.6-0.6,0.9-4.3-1.1-5.1c-2.3-1.1-4.6,0-4.6,0s-8,8.6-8.6,10.3
	c-0.6,1.7,1.4,1.1,2.6,1.4c1.1,0.3,6.3-2.9,7.7-3.4c1.7-0.6,2.6,0.3,2.3,1.1c-0.6,0.9-3.1,5.4-4.6,6.3c-1.4,0.9-1.4,3.7-1.4,3.7
	s-1.4,1.4-2.6,0.3c-0.9-1.1,0.9-6.9-3.4-5.1c-4.3,1.7,0.9,4.3-0.6,7.4c-1.4,2.9-6.6,4.3-7.4,6c-3.4,6.3-1.1,8.6,1.4,8.6
	c2.9,0.3,6.9-6.3,7.7-9.1C181.2,37.2,184.7,34.3,184.7,34.3"/>
<path class="st0" d="M197.2,42.6c-2.6-0.3-5.4,7.4-6.3,7.4c-0.9,0.3-0.3-4.3-1.1-4.9s-5.7,3.1-6.3,2.6c-0.6-0.6,0.9-5.1-0.3-5.1
	c-5.1,0.3-5.7,14-5.4,17.1s4,1.7,3.7,0.9c0-0.9,1.1-10,2.9-10c1.7-0.3,1.1,6.3,1.1,6.3l3.4,0.3c0,0,4.3-10.9,7.7-8.9
	c3.4,2-1.7,13.1-2.9,14.3c-1.1,1.1-0.3,1.7-0.3,2.6c0.3,0.6,2.6-0.3,2.6-0.3s4.6-8.3,5.7-14C202.9,45.2,200.1,42.6,197.2,42.6
	 M264.7,39.2c0.3-2,0.3-3.4,0.3-3.4h-4c0,0,0.9,0.9-0.3,0.9c-1.1,0-6.3,0.3-6.3,0.3s-0.9-1.7-0.3-4.6c0.9-2.9,3.1-8.6,3.4-8.9
	c0.3-0.3,0.9-5.1-0.3-5.7c-1.1-0.9-5.1,0.9-7.1,7.4s-1.7,10.3-2,10.9c-0.3,0.6-1.4,1.1-3.1,0.9c-1.7-0.3-10.3,0-10,5.7
	c0,2,2,2.9,4.3,2.3c2-0.9,6.9-2.9,6.6-1.4c-0.6,1.4-4.6,11.7-6,13.4v4.6h2.9c0,0,1.1-2.6,2.3-3.7c1.4-1.1,4.6-2.9,6.3-8.9
	c1.4-6,2-6.6,2.3-6.6h9.1C262.7,42.3,264.4,41.2,264.7,39.2 M259.8,48c-2.9,0.6-2.3,3.4-1.7,5.4c0.6,2.3,8.6,6.3,9.4,5.4
	c0.9-0.6,0.3-6.3,0-7.1C267.2,50.9,261.2,47.7,259.8,48 M312.4,30.9c-0.3,0.3-4,2-7.1,1.1c-3.1-0.9-2.9-0.3-3.1-0.9
	c-0.3-0.6,0.3-10,0.9-10.9c0.6-0.6,1.4-2,1.4-0.6c0,1.4-0.6,6.9-0.6,7.4c0,0.6,0,1.4,1.1,1.4s2-2.6,2.6-4.9c0.3-2.3,1.1-4.3,2.9-3.7
	c0.3,0-0.3,1.4-0.9,2.3c-0.6,0.9-2,4.3-1.4,5.7c0.9,1.4,1.1,1.7,2.6,0.6c1.4-1.1,4-3.7,4.3-5.1c0.3-1.4,0.3-4.3,0.6-4.6
	c0.3-0.3,3.1-2,4-1.1c0.9,0.9,1.7,1.1,0,2c-1.7,0.6-2.6,0-2.6,1.1c-0.3,1.1-1.4,4.6-2.3,6C314.4,28.6,312.7,30.6,312.4,30.9
	 M327.8,29.5c-2.9-1.1-6.9,0.9-6.9,0.9s-5.1,0.6-5.4-0.3c-0.3-0.9,2.6-2.9,2.6-2.9l3.4-0.3c0,0,2.3-3.7,3.7-6.9s1.1-6-2.3-6.9
	c-3.4-0.9-8,3.7-8,3.7s-0.9-2.3-2.9-2c-1.1,0.3-1.7,1.4-1.7,1.4s-0.9-0.3-1.7-0.3s-0.6-1.4-2-1.7c-1.4-0.3-2.3,3.7-2.3,3.7
	s-0.3-0.3-0.6-1.1c-0.3-0.9-0.9-2.6-1.7-2.9c-0.9-0.3-2,1.1-2.6,2c-0.6,0.9,0.9,13.4,0.3,13.7s-2.9-0.9-4.3-1.1
	c-1.7-0.6-2,1.1-2,1.1l-0.6,13.1h2.6c1.7,0,2.6-4.9,2.9-6c0.3-1.4,3.7-1.1,8.3-1.1c4.6,0.3,10-2,11.7-2.3c1.7-0.3,4.3,0.6,5.1,0.6
	c0.6,0.3,0,2.6-0.3,2.9c0,0.3,3.7,0,3.7,0s3.7-2,4.3-4C331.2,31.2,330.4,30.6,327.8,29.5"/>
<path class="st0" d="M322.9,48.9c-1.7,0-4.6,0.6-5.4-0.3c-0.9-0.9-1.4-2-0.3-2.9c1.1-0.9,3.1-1.1,3.4-4c0.3-2.9-3.1-3.4-3.1-3.4
	s-13.7,1.1-14.3,4c-0.3,0.9-0.9,4,1.4,3.7c2.3-0.3,6.3-2.6,7.7-2c1.1,0.6,2,5.4-2.9,5.4c-6.6,0.3-9.1,1.4-9.1,3.7
	c-0.3,2.3,4.9,1.7,5.4,1.4c0.6-0.3,4.6-2.6,6.9-1.7c1.4,0.6,1.1,1.1,0.9,3.1c-0.3,2.3-2,6.3-4.3,6.3c-2.6,0.3-5.4,0-5.4,0
	s0.6,5.1,2.6,5.4c2,0.6,5.4-1.4,7.1-3.4c1.7-2,3.1-3.4,3.4-4.9c0.3-1.4-0.3-6,1.1-6.6s5.4-0.3,5.4-0.3s1.4-0.6,1.4-2.3
	C324.9,49.2,324.7,48.9,322.9,48.9"/>
</svg>
